<?xml version="1.0" encoding="UTF-8" standalone="no"?>
<svg
   xmlns:dc="http://purl.org/dc/elements/1.1/"
   xmlns:cc="http://creativecommons.org/ns#"
   xmlns:rdf="http://www.w3.org/1999/02/22-rdf-syntax-ns#"
   xmlns:svg="http://www.w3.org/2000/svg"
   xmlns="http://www.w3.org/2000/svg"
   xmlns:sodipodi="http://sodipodi.sourceforge.net/DTD/sodipodi-0.dtd"
   xmlns:inkscape="http://www.inkscape.org/namespaces/inkscape"
   version="1.1"
   x="0px"
   y="0px"
   viewBox="0 0 150 150"
   xml:space="preserve"
   id="svg20"
   sodipodi:docname="magnifying-primary.svg"
   width="150"
   height="150"
   inkscape:version="0.92.5 (2060ec1f9f, 2020-04-08)"><metadata
     id="metadata26"><rdf:RDF><cc:Work
         rdf:about=""><dc:format>image/svg+xml</dc:format><dc:type
           rdf:resource="http://purl.org/dc/dcmitype/StillImage" /><dc:title></dc:title></cc:Work></rdf:RDF></metadata><defs
     id="defs24" /><sodipodi:namedview
     pagecolor="#ffffff"
     bordercolor="#666666"
     borderopacity="1"
     objecttolerance="10"
     gridtolerance="10"
     guidetolerance="10"
     inkscape:pageopacity="0"
     inkscape:pageshadow="2"
     inkscape:window-width="1920"
     inkscape:window-height="1043"
     id="namedview22"
     showgrid="false"
     inkscape:zoom="2.95"
     inkscape:cx="31"
     inkscape:cy="22.999997"
     inkscape:window-x="0"
     inkscape:window-y="0"
     inkscape:window-maximized="1"
     inkscape:current-layer="svg20" /><g
     id="g14"
     style="fill:#ca445e;fill-opacity:1"
     transform="matrix(2.4193548,0,0,2.4193548,-2.4193548,-2.4193548)"><path
       d="M 37,19 C 37,9.075 28.925,1 19,1 9.075,1 1,9.075 1,19 1,26.819 6.02,33.471 13,35.95 V 39 h -2 v 2 h 2 v 16 c 0,3.309 2.691,6 6,6 3.309,0 6,-2.691 6,-6 V 41 h 2 V 39 H 25 V 35.95 C 31.98,33.471 37,26.819 37,19 Z M 3,19 C 3,10.178 10.178,3 19,3 27.822,3 35,10.178 35,19 35,27.822 27.822,35 19,35 10.178,35 3,27.822 3,19 Z m 20,38 c 0,2.206 -1.794,4 -4,4 -2.206,0 -4,-1.794 -4,-4 V 41 h 8 z M 23,39 H 15 V 36.536 C 16.289,36.83 17.624,37 19,37 c 1.376,0 2.711,-0.17 4,-0.464 z"
       id="path2"
       style="fill:#ca445e;fill-opacity:1"
       inkscape:connector-curvature="0" /><path
       d="M 31,19 C 31,12.383 25.617,7 19,7 12.383,7 7,12.383 7,19 c 0,6.617 5.383,12 12,12 6.617,0 12,-5.383 12,-12 z M 9,19 C 9,13.486 13.486,9 19,9 24.514,9 29,13.486 29,19 29,24.514 24.514,29 19,29 13.486,29 9,24.514 9,19 Z"
       id="path4"
       style="fill:#ca445e;fill-opacity:1"
       inkscape:connector-curvature="0" /><path
       d="M 61,55 H 60.429 C 59.866,54.245 58.116,51.087 58.006,40.999 59.106,40.996 60,40.1 60,39 v -4 c 0,-1.103 -0.897,-2 -2,-2 H 40 c -1.103,0 -2,0.897 -2,2 v 4 c 0,1.1 0.894,1.996 1.994,1.999 C 39.884,51.087 38.133,54.245 37.571,55 H 37 c -1.103,0 -2,0.897 -2,2 v 4 c 0,1.103 0.897,2 2,2 h 24 c 1.103,0 2,-0.897 2,-2 v -4 c 0,-1.103 -0.897,-2 -2,-2 z M 40,35 h 18 l 10e-4,4 H 40 Z M 61,61 H 37 V 57 H 54 V 55 H 39.89 c 0.944,-1.988 2.02,-6.005 2.103,-14 h 14.013 c 0.083,7.995 1.159,12.012 2.103,14 H 56 v 2 h 5 z"
       id="path6"
       style="fill:#ca445e;fill-opacity:1"
       inkscape:connector-curvature="0" /><rect
       x="16"
       y="13.929"
       transform="matrix(0.7071,-0.7071,0.7071,0.7071,-9.8701,18.1716)"
       width="2"
       height="14.142"
       id="rect8"
       style="fill:#ca445e;fill-opacity:1" /><rect
       x="24.5"
       y="20.792999"
       transform="matrix(0.7071,-0.7071,0.7071,0.7071,-7.734,24.3284)"
       width="2"
       height="1.414"
       id="rect10"
       style="fill:#ca445e;fill-opacity:1" /><rect
       x="18.891001"
       y="10.388"
       transform="matrix(0.7071,-0.7071,0.7071,0.7071,-5.4106,18.7193)"
       width="2"
       height="11.005"
       id="rect12"
       style="fill:#ca445e;fill-opacity:1" /></g></svg>