<?xml version="1.0" encoding="UTF-8" standalone="no"?>
<svg xmlns:dc="http://purl.org/dc/elements/1.1/"
  xmlns:cc="http://creativecommons.org/ns#"
  xmlns:rdf="http://www.w3.org/1999/02/22-rdf-syntax-ns#"
  xmlns:svg="http://www.w3.org/2000/svg"
  xmlns="http://www.w3.org/2000/svg"
  xmlns:sodipodi="http://sodipodi.sourceforge.net/DTD/sodipodi-0.dtd"
  xmlns:inkscape="http://www.inkscape.org/namespaces/inkscape" version="1.1" x="0px" y="0px" viewBox="0 0 150 151.80466" enable-background="new 0 0 100 100" xml:space="preserve" id="svg8" sodipodi:docname="puzzle-primary.svg" width="150" height="151.80466" inkscape:version="0.92.5 (2060ec1f9f, 2020-04-08)">
  <metadata id="metadata14">
    <rdf:RDF>
      <cc:Work rdf:about="">
        <dc:format>image/svg+xml</dc:format>
        <dc:type rdf:resource="http://purl.org/dc/dcmitype/StillImage" />
        <dc:title></dc:title>
      </cc:Work>
    </rdf:RDF>
  </metadata>
  <defs id="defs12" />
  <sodipodi:namedview pagecolor="#ffffff" bordercolor="#666666" borderopacity="1" objecttolerance="10" gridtolerance="10" guidetolerance="10" inkscape:pageopacity="0" inkscape:pageshadow="2" inkscape:window-width="1920" inkscape:window-height="1043" id="namedview10" showgrid="false" inkscape:zoom="1" inkscape:cx="-123.866" inkscape:cy="33.17603" inkscape:window-x="0" inkscape:window-y="0" inkscape:window-maximized="1" inkscape:current-layer="svg8" />
  <path d="m 85.536954,27.323634 v 14.884013 c 0,1.927594 0.997032,3.652456 2.667057,4.617916 1.645104,0.94718 3.700648,0.940533 5.332455,-0.0083 0.877389,-0.508485 1.884384,-0.777684 2.906344,-0.777684 3.20047,0 5.80438,2.603913 5.80438,5.804384 0,3.200469 -2.60391,5.80438 -5.80438,5.80438 -1.02362,0 -2.028955,-0.269197 -2.904682,-0.779344 -1.638454,-0.950504 -3.684028,-0.955488 -5.335776,-0.0049 -1.670028,0.963799 -2.665398,2.688661 -2.665398,4.614592 V 87.065736 H 69.28535 c -0.1479,0 -0.216024,-0.03822 -0.292463,-0.166173 -0.0781,-0.126285 -0.07975,-0.20439 -0.0117,-0.340651 0.889018,-1.716555 1.359285,-3.654119 1.359285,-5.598329 0,-6.718329 -5.465391,-12.185382 -12.183719,-12.185382 -4.077858,0 -7.683785,2.02065 -9.897193,5.104799 0.167833,-0.412106 0.285814,-0.847476 0.347296,-1.302786 0.245936,-1.859463 -0.476911,-3.672399 -1.9359,-4.850558 -0.903974,-0.727831 -1.596912,-1.638453 -2.065518,-2.706939 -0.772698,-1.76142 -0.81258,-3.717264 -0.11466,-5.508595 0.697923,-1.791333 2.052224,-3.203795 3.813646,-3.978155 0.920592,-0.403797 1.892697,-0.608188 2.886405,-0.608188 2.859815,0 5.448774,1.691628 6.598684,4.308835 0.468603,1.068485 0.668012,2.19513 0.593232,3.351686 -0.11964,1.897684 0.702909,3.612576 2.261601,4.707648 1.528781,1.071808 3.48296,1.264569 5.199515,0.513471 L 85.287615,59.26851 72.997545,31.278527 c -0.06149,-0.137925 -0.05151,-0.222671 0.03489,-0.342315 0.09804,-0.13128 0.171157,-0.13626 0.317388,-0.13959 1.87442,0.212701 3.783734,-0.07644 5.531862,-0.844154 5.447112,-2.392873 7.933043,-8.770548 5.540169,-14.217661 -1.719879,-3.919994 -5.599992,-6.454114 -9.88224,-6.454114 -1.495547,0 -2.954535,0.307418 -4.335423,0.912283 -1.738158,0.766052 -3.246997,1.975783 -4.363672,3.501241 -0.09804,0.131275 -0.184451,0.139584 -0.312404,0.137922 -0.151212,-0.01662 -0.217684,-0.06481 -0.279169,-0.204391 L 59.265186,0 0,26.025834 26.020848,85.292682 45.464614,76.756434 c 0.764391,-0.334005 1.399169,-0.850798 1.9143,-1.46065 -0.894004,1.694953 -1.407474,3.619224 -1.407474,5.668122 0,1.944211 0.470267,3.881775 1.362609,5.601652 0.06647,0.132945 0.06482,0.21104 -0.0117,0.337329 -0.07811,0.126285 -0.146235,0.166173 -0.295785,0.166173 h -21.23171 v 64.72559 h 59.476225 v 0.01 H 150 V 92.054214 87.075707 27.323634 Z M 43.462245,72.191694 28.583218,78.723909 6.568773,28.586543 56.706141,6.573758 60.685956,15.63677 c 0.776022,1.766407 2.382905,2.944565 4.300527,3.155603 1.942549,0.217685 3.748838,-0.603203 4.880468,-2.151925 0.598217,-0.817565 1.412459,-1.468959 2.346346,-1.881065 0.742788,-0.325697 1.527118,-0.491869 2.32973,-0.491869 2.304802,0 4.39358,1.362609 5.31916,3.474653 1.286169,2.92961 -0.04985,6.361059 -2.982784,7.65055 -0.938871,0.410447 -1.959167,0.568308 -2.972816,0.451988 -1.947533,-0.214359 -3.745512,0.591574 -4.882128,2.13697 -1.144925,1.553709 -1.364269,3.534477 -0.588249,5.300883 l 10.282714,23.423583 -15.033567,6.57708 c -0.01993,0 -0.07977,0 -0.176142,-0.06979 -0.124635,-0.08807 -0.159525,-0.159525 -0.14955,-0.305755 0.124636,-1.932579 -0.22267,-3.895067 -1.005339,-5.678093 -1.944211,-4.426818 -6.326163,-7.288296 -11.161764,-7.288296 -1.689967,0 -3.335068,0.345638 -4.890434,1.030266 -2.981125,1.307771 -5.272636,3.698984 -6.454115,6.729959 -1.183144,3.032635 -1.113351,6.342778 0.194419,9.320578 0.779348,1.779701 1.989077,3.364982 3.497918,4.584681 0.11466,0.09471 0.146235,0.167834 0.126285,0.312404 -0.0216,0.149565 -0.06647,0.2127 -0.204392,0.272523 z M 90.522111,61.481921 c 0,-0.14955 0.04155,-0.222672 0.172816,-0.29745 0.13128,-0.07478 0.212702,-0.07644 0.342314,-0.0017 1.635134,0.950502 3.506228,1.452342 5.407239,1.452342 5.94895,0 10.78953,-4.840587 10.78953,-10.789539 0,-5.948952 -4.84058,-10.789536 -10.78953,-10.789536 -1.899349,0 -3.768784,0.501838 -5.41056,1.452342 -0.122985,0.07146 -0.209378,0.07146 -0.337329,0 -0.13128,-0.07644 -0.17282,-0.14955 -0.17282,-0.300773 V 32.308791 H 145.01649 V 87.06906 h -17.24198 c -0.113,-0.0099 -0.18279,-0.04486 -0.25092,-0.152878 -0.0781,-0.129615 -0.0814,-0.204392 -0.0199,-0.327359 0.10468,-0.211038 0.23264,-0.4254 0.38718,-0.653055 1.36427,-2.002371 2.08546,-4.342071 2.08546,-6.766518 0,-6.626934 -5.38895,-12.015886 -12.01423,-12.015886 -6.62527,0 -12.01588,5.388952 -12.01588,12.015886 0,2.424447 0.72118,4.764147 2.08712,6.766518 0.15121,0.221009 0.27916,0.432047 0.38219,0.646409 0.0648,0.132945 0.0615,0.207714 -0.0166,0.330681 -0.0681,0.10968 -0.13792,0.146235 -0.25092,0.156202 H 90.522111 Z M 30.78001,146.8095 V 92.054214 h 16.249944 c 1.87608,0 3.57768,-0.95715 4.55477,-2.564031 0.973768,-1.603558 1.040235,-3.554415 0.176142,-5.219457 -0.533412,-1.025281 -0.80261,-2.138632 -0.80261,-3.30682 0,-3.969845 3.22872,-7.200225 7.198565,-7.200225 3.969844,0 7.198563,3.228718 7.198563,7.200225 0,1.164865 -0.269198,2.281539 -0.799285,3.30682 -0.865756,1.665042 -0.797626,3.615899 0.176141,5.222781 0.975429,1.603557 2.675367,2.560707 4.551447,2.560707 h 15.985732 v 20.359376 c 0,0.18445 -0.157863,0.34397 -0.342314,0.34397 H 84.72936 c -0.980413,0 -1.778038,-0.24593 -2.588958,-0.80094 -2.000709,-1.36261 -4.340407,-2.0838 -6.766516,-2.0838 -6.625271,0 -12.014225,5.38729 -12.014225,12.01422 0,6.62362 5.388954,12.01423 12.014225,12.01423 2.426109,0 4.765807,-0.72119 6.766516,-2.08712 0.809257,-0.55169 1.608545,-0.79763 2.588958,-0.79763 h 0.197745 c 0.18445,0 0.342313,0.15953 0.342313,0.34398 v 15.449 z m 114.23483,0.01 H 90.256236 v -15.4589 c 0,-2.93792 -2.389551,-5.32913 -5.327472,-5.32913 h -0.197742 c -1.989079,0 -3.757146,0.54504 -5.398923,1.66837 -1.168188,0.79596 -2.535783,1.21637 -3.956552,1.21637 -3.876789,0 -7.029067,-3.15394 -7.029067,-7.02907 0,-3.87844 3.152278,-7.02907 7.029067,-7.02907 1.419107,0 2.788364,0.42208 3.956552,1.21638 1.641777,1.12332 3.409844,1.66837 5.398923,1.66837 h 0.197742 c 2.937921,0 5.327472,-2.39121 5.327472,-5.32913 V 92.060862 h 17.850174 c 1.88273,0 3.53282,-0.918931 4.52819,-2.519166 0.9937,-1.600234 1.08178,-3.486285 0.24925,-5.166282 -0.19608,-0.402136 -0.44035,-0.817566 -0.73447,-1.249612 -0.79597,-1.16819 -1.21805,-2.537444 -1.21805,-3.956552 0,-3.876789 3.15395,-7.030731 7.03074,-7.030731 3.87678,0 7.02907,3.15228 7.02907,7.030731 0,1.419108 -0.42208,2.788362 -1.21638,3.956552 -0.29413,0.428724 -0.53175,0.837505 -0.73448,1.242966 -0.83418,1.688305 -0.74445,3.572694 0.24759,5.172928 0.99537,1.600235 2.64546,2.519166 4.52819,2.519166 h 17.20043 v 54.758608 z" id="path2" style="fill:#ca445e;fill-opacity:1;stroke-width:1.66171825" inkscape:connector-curvature="0" />
</svg>