<?xml version="1.0" encoding="UTF-8" standalone="no"?>
<svg
   xmlns:dc="http://purl.org/dc/elements/1.1/"
   xmlns:cc="http://creativecommons.org/ns#"
   xmlns:rdf="http://www.w3.org/1999/02/22-rdf-syntax-ns#"
   xmlns:svg="http://www.w3.org/2000/svg"
   xmlns="http://www.w3.org/2000/svg"
   xmlns:sodipodi="http://sodipodi.sourceforge.net/DTD/sodipodi-0.dtd"
   xmlns:inkscape="http://www.inkscape.org/namespaces/inkscape"
   version="1.1"
   id="Layer_1"
   x="0px"
   y="0px"
   width="22.717093"
   height="10.15213"
   viewBox="0 0 22.717092 10.152129"
   xml:space="preserve"
   sodipodi:docname="tilde.svg"
   inkscape:version="0.92.5 (2060ec1f9f, 2020-04-08)"
   style="fill:#000000"><defs
     id="defs9" /><sodipodi:namedview
     pagecolor="#ffffff"
     bordercolor="#666666"
     borderopacity="1"
     objecttolerance="10"
     gridtolerance="10"
     guidetolerance="10"
     inkscape:pageopacity="0"
     inkscape:pageshadow="2"
     inkscape:window-width="1848"
     inkscape:window-height="1016"
     id="namedview7"
     showgrid="false"
     inkscape:zoom="9.8333333"
     inkscape:cx="-6.9724914"
     inkscape:cy="-26.664717"
     inkscape:window-x="1992"
     inkscape:window-y="27"
     inkscape:window-maximized="1"
     inkscape:current-layer="Layer_1"
     inkscape:snap-bbox="true"
     inkscape:snap-global="false" /><path
     d="M 18.327788,9.6322931 C 14.870134,10.887818 11.048813,9.1023911 9.7932887,5.6447376 9.1658105,3.916694 7.2540825,3.0234822 5.5260392,3.65096 3.7979953,4.2784381 2.9047823,6.1901651 3.5322603,7.9182086 A 1.6652543,1.6652543 0 1 1 0.401746,9.0549441 C -0.85377801,5.5972925 0.93165046,1.7759695 4.3893034,0.52044509 7.8469557,-0.73507913 11.668279,1.0503502 12.923803,4.508002 c 0.627478,1.7280436 2.539206,2.6212568 4.26725,1.9937787 1.728044,-0.6274778 2.621255,-2.5392059 1.993778,-4.2672495 a 1.665255,1.665255 0 1 1 3.130515,-1.1367361 c 1.255525,3.4576536 -0.529906,7.2789741 -3.987558,8.534498 z"
     id="path2"
     style="fill:#ffc300;fill-opacity:1;stroke-width:0.55508471"
     inkscape:connector-curvature="0" /><metadata
     id="metadata4"><rdf:RDF><rdf:Description
         about="https://iconscout.com/legal#licenses"
         dc:title="tilde"
         dc:description="tilde"
         dc:publisher="Iconscout"
         dc:date="2017-09-24"
         dc:format="image/svg+xml"
         dc:language="en"><dc:creator><rdf:Bag><rdf:li>Adam</rdf:li></rdf:Bag></dc:creator></rdf:Description><cc:Work
         rdf:about=""><dc:format>image/svg+xml</dc:format><dc:type
           rdf:resource="http://purl.org/dc/dcmitype/StillImage" /></cc:Work></rdf:RDF></metadata></svg>