<?xml version="1.0" encoding="UTF-8" standalone="no"?>
<svg
   xmlns:dc="http://purl.org/dc/elements/1.1/"
   xmlns:cc="http://creativecommons.org/ns#"
   xmlns:rdf="http://www.w3.org/1999/02/22-rdf-syntax-ns#"
   xmlns:svg="http://www.w3.org/2000/svg"
   xmlns="http://www.w3.org/2000/svg"
   xmlns:sodipodi="http://sodipodi.sourceforge.net/DTD/sodipodi-0.dtd"
   xmlns:inkscape="http://www.inkscape.org/namespaces/inkscape"
   version="1.1"
   x="0px"
   y="0px"
   viewBox="0 0 97.492248 150"
   enable-background="new 0 0 100 100"
   xml:space="preserve"
   id="svg12"
   sodipodi:docname="tools-primary.svg"
   width="97.492249"
   height="150"
   inkscape:version="0.92.5 (2060ec1f9f, 2020-04-08)"><metadata
     id="metadata18"><rdf:RDF><cc:Work
         rdf:about=""><dc:format>image/svg+xml</dc:format><dc:type
           rdf:resource="http://purl.org/dc/dcmitype/StillImage" /><dc:title></dc:title></cc:Work></rdf:RDF></metadata><defs
     id="defs16" /><sodipodi:namedview
     pagecolor="#ffffff"
     bordercolor="#666666"
     borderopacity="1"
     objecttolerance="10"
     gridtolerance="10"
     guidetolerance="10"
     inkscape:pageopacity="0"
     inkscape:pageshadow="2"
     inkscape:window-width="1920"
     inkscape:window-height="1043"
     id="namedview14"
     showgrid="false"
     inkscape:zoom="1.888"
     inkscape:cx="29.247001"
     inkscape:cy="32.500996"
     inkscape:window-x="0"
     inkscape:window-y="0"
     inkscape:window-maximized="1"
     inkscape:current-layer="svg12" /><g
     id="g6"
     style="fill:#ca445e;fill-opacity:1"
     transform="matrix(1.6666481,0,0,1.6666481,-34.587948,-8.3332405)"><path
       d="m 37.867,57.475 v -2.006 c 0,-2.029 -1.407,-3.723 -3.292,-4.193 V 21.243 L 37.282,18.89 C 37.721,18.508 37.9,17.905 37.74,17.345 L 34.518,6.087 C 34.333,5.443 33.744,5 33.075,5 h -0.541 -3.571 -0.541 c -0.67,0 -1.258,0.443 -1.442,1.087 l -3.223,11.257 c -0.16,0.56 0.019,1.163 0.458,1.545 l 2.707,2.353 v 30.034 c -1.885,0.47 -3.291,2.164 -3.291,4.193 v 2.006 c -1.702,0.892 -2.878,2.656 -2.878,4.706 v 27.485 c 0,2.941 2.393,5.333 5.333,5.333 h 9.325 c 2.94,0 5.333,-2.393 5.333,-5.333 V 62.181 c 0,-2.05 -1.176,-3.814 -2.877,-4.706 z M 26.904,17.252 29.553,8 h 2.392 l 2.648,9.252 -2.502,2.174 c -0.014,0.012 -0.023,0.027 -0.037,0.039 -0.037,0.035 -0.07,0.072 -0.104,0.111 -0.032,0.037 -0.064,0.073 -0.092,0.112 -0.028,0.038 -0.051,0.079 -0.074,0.12 -0.025,0.043 -0.051,0.086 -0.071,0.131 -0.019,0.042 -0.033,0.086 -0.049,0.131 -0.017,0.048 -0.033,0.095 -0.045,0.145 -0.01,0.044 -0.016,0.088 -0.022,0.133 -0.008,0.054 -0.015,0.107 -0.016,0.162 0,0.017 -0.005,0.032 -0.005,0.049 V 51.136 H 29.923 V 20.559 c 0,-0.017 -0.004,-0.033 -0.005,-0.049 C 29.916,20.456 29.909,20.403 29.902,20.349 29.896,20.304 29.89,20.259 29.88,20.215 29.868,20.166 29.852,20.119 29.835,20.071 29.82,20.027 29.805,19.982 29.786,19.94 29.765,19.895 29.74,19.852 29.715,19.809 29.691,19.768 29.668,19.727 29.64,19.688 29.612,19.649 29.58,19.613 29.548,19.577 29.514,19.539 29.481,19.501 29.444,19.466 29.431,19.454 29.421,19.439 29.408,19.427 Z m -0.273,38.217 c 0,-0.735 0.598,-1.333 1.333,-1.333 h 0.434 c 0.008,0 0.016,0.002 0.024,0.002 h 4.653 c 0.008,0 0.016,-0.002 0.024,-0.002 h 0.434 c 0.735,0 1.334,0.598 1.334,1.333 v 1.379 H 26.631 Z M 32.229,92 h -2.96 V 67.136 c 0,-0.816 0.664,-1.48 1.48,-1.48 0.815,0 1.479,0.664 1.479,1.48 V 92 Z m 5.515,-2.333 C 37.744,90.954 36.697,92 35.411,92 H 35.228 V 67.136 c 0,-0.104 -0.01,-0.205 -0.031,-0.303 -0.159,-2.327 -2.083,-4.178 -4.449,-4.178 -2.367,0 -4.291,1.85 -4.45,4.178 -0.02,0.098 -0.031,0.199 -0.031,0.303 V 92 h -0.183 c -1.286,0 -2.333,-1.047 -2.333,-2.333 V 62.181 c 0,-1.287 1.047,-2.333 2.333,-2.333 h 9.325 c 1.286,0 2.333,1.047 2.333,2.333 v 27.486 z"
       id="path2"
       style="fill:#ca445e;fill-opacity:1"
       inkscape:connector-curvature="0" /><path
       d="M 71.085,68.329 V 31.671 C 76.074,29.155 79.247,24.057 79.247,18.41 79.247,12.779 76.13,7.703 71.111,5.162 71.096,5.154 71.08,5.151 71.065,5.144 71.017,5.122 70.967,5.104 70.917,5.087 70.872,5.071 70.827,5.056 70.781,5.045 70.736,5.034 70.689,5.028 70.643,5.022 70.589,5.014 70.536,5.007 70.482,5.006 70.466,5.004 70.45,5 70.434,5 70.404,5 70.376,5.007 70.347,5.009 70.294,5.012 70.242,5.016 70.19,5.025 70.141,5.033 70.094,5.045 70.047,5.057 70.002,5.069 69.957,5.082 69.913,5.099 69.866,5.117 69.82,5.137 69.775,5.159 69.733,5.18 69.692,5.201 69.652,5.226 69.61,5.252 69.571,5.279 69.532,5.308 69.494,5.337 69.456,5.367 69.42,5.4 c -0.036,0.033 -0.069,0.068 -0.102,0.105 -0.031,0.035 -0.062,0.07 -0.09,0.109 -0.033,0.044 -0.061,0.091 -0.089,0.138 -0.014,0.024 -0.032,0.045 -0.045,0.07 -0.007,0.014 -0.01,0.029 -0.017,0.043 -0.023,0.05 -0.042,0.102 -0.06,0.155 -0.015,0.044 -0.03,0.088 -0.041,0.132 -0.011,0.045 -0.017,0.091 -0.023,0.138 -0.008,0.055 -0.015,0.109 -0.017,0.163 0,0.016 -0.005,0.031 -0.005,0.047 v 7.997 c 0,1.401 -1.138,2.542 -2.535,2.542 h -4.01 c -1.397,0 -2.535,-1.14 -2.535,-2.542 V 6.5 C 59.851,6.484 59.847,6.47 59.846,6.454 59.844,6.397 59.837,6.341 59.829,6.284 59.823,6.24 59.817,6.196 59.807,6.154 59.796,6.106 59.779,6.059 59.763,6.011 59.746,5.962 59.729,5.914 59.708,5.868 59.701,5.852 59.697,5.835 59.689,5.82 59.675,5.793 59.656,5.77 59.64,5.744 59.614,5.7 59.587,5.656 59.557,5.615 59.528,5.575 59.496,5.538 59.463,5.501 59.431,5.466 59.399,5.431 59.364,5.399 59.328,5.366 59.29,5.335 59.251,5.306 59.212,5.276 59.172,5.249 59.13,5.223 59.091,5.199 59.051,5.178 59.01,5.158 58.964,5.135 58.917,5.114 58.868,5.096 58.826,5.08 58.783,5.068 58.739,5.056 58.69,5.043 58.641,5.031 58.591,5.023 58.541,5.015 58.49,5.011 58.439,5.008 58.413,5.007 58.384,5 58.354,5 58.337,5 58.321,5.005 58.303,5.005 58.251,5.007 58.199,5.013 58.147,5.021 58.099,5.028 58.051,5.034 58.004,5.045 57.96,5.056 57.917,5.071 57.873,5.086 c -0.053,0.018 -0.105,0.036 -0.155,0.06 -0.014,0.007 -0.029,0.01 -0.044,0.017 -5.018,2.547 -8.135,7.623 -8.135,13.247 0,5.649 3.175,10.75 8.168,13.267 v 36.647 c -4.993,2.516 -8.168,7.617 -8.168,13.267 0,5.624 3.117,10.7 8.135,13.247 0.013,0.006 0.026,0.008 0.039,0.014 0.074,0.035 0.151,0.062 0.23,0.085 0.028,0.008 0.056,0.02 0.085,0.026 0.093,0.021 0.189,0.031 0.288,0.034 0.012,0 0.024,0.004 0.036,0.004 0.004,0 0.007,-0.001 0.011,-0.001 0.122,-0.001 0.239,-0.02 0.353,-0.048 0.033,-0.008 0.063,-0.019 0.096,-0.03 0.09,-0.029 0.176,-0.066 0.258,-0.111 0.027,-0.015 0.055,-0.028 0.082,-0.044 0.101,-0.064 0.195,-0.138 0.278,-0.224 0.018,-0.019 0.033,-0.041 0.05,-0.061 0.068,-0.078 0.127,-0.163 0.178,-0.254 0.01,-0.017 0.024,-0.03 0.033,-0.048 0.008,-0.016 0.011,-0.032 0.019,-0.048 0.021,-0.046 0.038,-0.094 0.055,-0.143 0.016,-0.047 0.033,-0.094 0.044,-0.143 0.01,-0.043 0.016,-0.086 0.022,-0.13 0.008,-0.057 0.015,-0.113 0.017,-0.17 0,-0.016 0.005,-0.03 0.005,-0.046 v -7.997 c 0,-1.401 1.138,-2.542 2.535,-2.542 h 4.01 c 1.397,0 2.535,1.14 2.535,2.542 V 93.5 c 0,0.016 0.004,0.031 0.005,0.047 0.002,0.055 0.009,0.109 0.017,0.163 0.007,0.047 0.013,0.093 0.023,0.138 0.011,0.045 0.026,0.088 0.041,0.132 0.018,0.053 0.036,0.105 0.06,0.155 0.007,0.014 0.01,0.029 0.017,0.043 0.008,0.016 0.022,0.028 0.03,0.043 0.052,0.094 0.113,0.181 0.183,0.261 0.016,0.019 0.03,0.04 0.047,0.057 0.083,0.086 0.177,0.161 0.279,0.226 0.026,0.016 0.053,0.029 0.08,0.043 0.083,0.046 0.169,0.083 0.261,0.112 0.032,0.01 0.062,0.021 0.095,0.029 0.114,0.028 0.231,0.048 0.353,0.048 0.004,0 0.007,0.001 0.011,0.001 0.012,0 0.025,-0.004 0.038,-0.004 0.097,-0.003 0.193,-0.013 0.285,-0.033 0.03,-0.007 0.06,-0.019 0.09,-0.028 0.077,-0.022 0.152,-0.048 0.224,-0.082 0.013,-0.006 0.028,-0.008 0.041,-0.015 5.019,-2.541 8.136,-7.617 8.136,-13.248 -0.002,-5.644 -3.175,-10.743 -8.164,-13.259 z m 0.849,22.41 v -5.236 c 0,-3.056 -2.483,-5.542 -5.535,-5.542 h -4.01 c -3.052,0 -5.535,2.486 -5.535,5.542 v 5.233 c -2.707,-2.222 -4.313,-5.542 -4.313,-9.147 0,-4.766 2.831,-9.044 7.214,-10.913 0.167,0.064 0.347,0.103 0.537,0.103 10e-4,0 0.003,0 0.004,0 l 2,-0.006 c 0.829,-0.002 1.498,-0.676 1.496,-1.504 -0.002,-0.827 -0.674,-1.496 -1.5,-1.496 -0.001,0 -0.003,0 -0.004,0 l -1.579,0.005 V 30.726 c 0,-0.101 -0.01,-0.201 -0.03,-0.298 C 60.67,30.382 60.653,30.34 60.64,30.296 60.625,30.247 60.614,30.197 60.595,30.15 60.576,30.104 60.55,30.063 60.527,30.02 60.504,29.978 60.485,29.934 60.458,29.893 60.434,29.857 60.404,29.826 60.377,29.792 60.343,29.75 60.312,29.706 60.274,29.667 60.243,29.635 60.206,29.61 60.172,29.581 c -0.04,-0.034 -0.077,-0.07 -0.121,-0.1 -0.082,-0.056 -0.169,-0.103 -0.26,-0.142 -4.404,-1.861 -7.25,-6.151 -7.25,-10.93 0,-3.605 1.607,-6.925 4.313,-9.147 v 5.233 c 0,3.056 2.483,5.542 5.535,5.542 h 4.01 c 3.052,0 5.535,-2.486 5.535,-5.542 V 9.261 c 2.706,2.219 4.313,5.54 4.313,9.149 0,4.71 -2.767,8.939 -7.063,10.839 -0.1,-0.021 -0.203,-0.033 -0.309,-0.033 -0.001,0 -0.003,0 -0.004,0 l -2,0.006 c -0.829,0.002 -1.498,0.676 -1.496,1.504 0.002,0.827 0.674,1.496 1.5,1.496 0.001,0 0.003,0 0.004,0 l 1.206,-0.004 V 69.28 c 0,0.101 0.01,0.201 0.03,0.299 0.009,0.045 0.026,0.086 0.038,0.129 0.015,0.05 0.026,0.101 0.046,0.148 0.019,0.045 0.044,0.086 0.067,0.129 0.023,0.043 0.043,0.088 0.07,0.128 0.023,0.035 0.053,0.066 0.079,0.099 0.034,0.043 0.065,0.087 0.104,0.126 0.031,0.031 0.067,0.056 0.101,0.085 0.04,0.034 0.078,0.071 0.122,0.101 0.082,0.055 0.168,0.103 0.26,0.142 4.401,1.859 7.245,6.147 7.245,10.924 0,3.61 -1.607,6.931 -4.313,9.149 z"
       id="path4"
       style="fill:#ca445e;fill-opacity:1"
       inkscape:connector-curvature="0" /></g></svg>