<svg width="64" height="109" viewBox="0 0 64 109" xmlns="http://www.w3.org/2000/svg"><g fill="none" fill-rule="evenodd"><path d="M.5 75.5s62.9 6.3 62.9 16.8V67.1s0-10.5-62.9-16.8v25.2zm0-33.6s62.9 6.3 62.9 16.8V33.5S63.4 23 .5 16.7v25.2z" fill="#CA445E" fill-opacity=".45"/><path d="M.5 109V83.8S63.4 77.5 63.4 67v25.2c.1.1.1 10.5-62.9 16.8m0-58.7S63.4 44 63.4 33.5v25.2s0 10.5-62.9 16.8V50.3zM63.5 0v25.2S63.5 35.7.6 42V16.7c-.1 0 62.9-6.2 62.9-16.7" fill="#CA445E"/><path d="M5.447 89.789l.006-.001a.847.847 0 10-.2-1.682h-.006a.847.847 0 10.2 1.683zm7.902-.159l.01-.001a1.5 1.5 0 10-.397-2.974l-.01.002a1.5 1.5 0 10.397 2.973zm7.658-1.08l.01-.002a1.5 1.5 0 00-.442-2.967l-.011.001a1.5 1.5 0 10.443 2.967zm7.816-.627l.014-.002a1.992 1.992 0 00-.66-3.93l-.014.002a1.992 1.992 0 10.66 3.93zm7.65-1.37a1.992 1.992 0 10-.751-3.914l-.014.003a1.992 1.992 0 00.75 3.913l.015-.002zm7.4-2.158l.01-.003a1.5 1.5 0 10-.66-2.926l-.01.002a1.5 1.5 0 00.66 2.927zm7.555-1.887l.01-.003a1.5 1.5 0 00-.806-2.89l-.01.004a1.5 1.5 0 00.806 2.89zm6.992-2.702a.847.847 0 10-.614-1.578l-.006.002a.847.847 0 00.614 1.579l.006-.003zM5.678 97.597l.01-.002a1.5 1.5 0 10-.354-2.979c-.006 0-.006 0-.011.002a1.5 1.5 0 10.355 2.979zm7.67-.97l.012-.001a1.5 1.5 0 10-.398-2.974l-.01.002a1.5 1.5 0 10.397 2.973zm7.829-.501l.014-.003a1.993 1.993 0 10-.588-3.94l-.014.001a1.993 1.993 0 10.588 3.942zm7.66-1.208a1.992 1.992 0 10-.66-3.93l-.014.002a1.992 1.992 0 00.66 3.93l.014-.002zm7.636-1.357a1.998 1.998 0 001.581-2.339 1.993 1.993 0 00-2.332-1.586l-.014.003a1.998 1.998 0 00-1.582 2.339 1.993 1.993 0 002.332 1.586l.015-.003zm7.598-1.591l.014-.004a1.992 1.992 0 10-.876-3.887l-.014.003a1.992 1.992 0 10.876 3.888zm7.357-2.462l.01-.003a1.5 1.5 0 00-.806-2.89l-.01.004a1.5 1.5 0 00.806 2.89zm7.472-2.432l.01-.004a1.5 1.5 0 00-1.087-2.797l-.01.004a1.5 1.5 0 001.087 2.797zM5.453 104.198a.846.846 0 10-.2-1.682h-.006a.847.847 0 00.2 1.683l.006-.001zm7.896-.57l.01-.002a1.5 1.5 0 10-.397-2.974l-.01.002a1.5 1.5 0 10.397 2.973zm7.658-1.082l.01-.001a1.5 1.5 0 10-.442-2.968l-.011.002a1.5 1.5 0 00.443 2.967zm7.816-.626l.014-.002a1.992 1.992 0 10-.66-3.93l-.014.002a1.992 1.992 0 00.66 3.93zm7.65-1.37a1.992 1.992 0 10-.751-3.914l-.014.003a1.992 1.992 0 00.75 3.913l.015-.002zm7.4-2.155l.01-.003a1.5 1.5 0 00-.66-2.926l-.01.002a1.5 1.5 0 00.66 2.927zm7.555-1.887l.01-.003a1.5 1.5 0 00-.806-2.89l-.01.004a1.5 1.5 0 10.806 2.89zm6.986-3.3l.006-.002a.847.847 0 10-.614-1.578l-.006.002a.847.847 0 00.614 1.579zM5.447 56.189l.006-.001a.847.847 0 10-.2-1.682h-.006a.847.847 0 10.2 1.683zm7.902-.159l.01-.001a1.5 1.5 0 10-.397-2.974l-.01.002a1.5 1.5 0 10.397 2.973zm7.658-1.08l.01-.002a1.5 1.5 0 00-.442-2.967l-.011.001a1.5 1.5 0 10.443 2.967zm7.816-.627l.014-.002a1.992 1.992 0 00-.66-3.93l-.014.002a1.992 1.992 0 10.66 3.93zm7.65-1.37a1.992 1.992 0 10-.751-3.914l-.014.003a1.992 1.992 0 00.75 3.913l.015-.002zm7.4-2.158l.01-.003a1.5 1.5 0 10-.66-2.926l-.01.002a1.5 1.5 0 00.66 2.927zm7.555-1.887l.01-.003a1.5 1.5 0 00-.806-2.89l-.01.004a1.5 1.5 0 00.806 2.89zm6.992-2.702a.847.847 0 10-.614-1.578l-.006.002a.847.847 0 00.614 1.579l.006-.003zM5.678 63.997l.01-.002a1.5 1.5 0 10-.354-2.979c-.006 0-.006 0-.011.002a1.5 1.5 0 10.355 2.979zm7.67-.97l.012-.001a1.5 1.5 0 10-.398-2.974l-.01.002a1.5 1.5 0 10.397 2.973zm7.829-.501l.014-.003a1.993 1.993 0 10-.588-3.94l-.014.001a1.993 1.993 0 10.588 3.942zm7.66-1.208a1.992 1.992 0 10-.66-3.93l-.014.002a1.992 1.992 0 00.66 3.93l.014-.002zm7.636-1.357a1.998 1.998 0 001.581-2.339 1.993 1.993 0 00-2.332-1.586l-.014.003a1.998 1.998 0 00-1.582 2.339 1.993 1.993 0 002.332 1.586l.015-.003zm7.598-1.591l.014-.004a1.992 1.992 0 10-.876-3.887l-.014.003a1.992 1.992 0 10.876 3.888zm7.357-2.462l.01-.003a1.5 1.5 0 00-.806-2.89l-.01.004a1.5 1.5 0 00.806 2.89zm7.472-2.432l.01-.004a1.5 1.5 0 00-1.087-2.797l-.01.004a1.5 1.5 0 001.087 2.797zM5.453 70.598a.846.846 0 10-.2-1.682h-.006a.847.847 0 00.2 1.683l.006-.001zm7.896-.57l.01-.002a1.5 1.5 0 10-.397-2.974l-.01.002a1.5 1.5 0 10.397 2.973zm7.658-1.082l.01-.001a1.5 1.5 0 10-.442-2.968l-.011.002a1.5 1.5 0 00.443 2.967zm7.816-.626l.014-.002a1.992 1.992 0 10-.66-3.93l-.014.002a1.992 1.992 0 00.66 3.93zm7.65-1.37a1.992 1.992 0 10-.751-3.914l-.014.003a1.992 1.992 0 00.75 3.913l.015-.002zm7.4-2.155l.01-.003a1.5 1.5 0 00-.66-2.926l-.01.002a1.5 1.5 0 00.66 2.927zm7.555-1.887l.01-.003a1.5 1.5 0 00-.806-2.89l-.01.004a1.5 1.5 0 10.806 2.89zm6.986-3.3l.006-.002a.847.847 0 10-.614-1.578l-.006.002a.847.847 0 00.614 1.579zM5.447 22.289l.006-.001a.847.847 0 10-.2-1.682h-.006a.847.847 0 10.2 1.683zm7.902-.159l.01-.001a1.5 1.5 0 10-.397-2.974l-.01.002a1.5 1.5 0 10.397 2.973zm7.658-1.08l.01-.002a1.5 1.5 0 00-.442-2.967l-.011.001a1.5 1.5 0 10.443 2.967zm7.816-.627l.014-.002a1.992 1.992 0 00-.66-3.93l-.014.002a1.992 1.992 0 10.66 3.93zm7.65-1.37a1.992 1.992 0 10-.751-3.914l-.014.003a1.992 1.992 0 00.75 3.913l.015-.002zm7.4-2.158l.01-.003a1.5 1.5 0 10-.66-2.926l-.01.002a1.5 1.5 0 00.66 2.927zm7.555-1.887l.01-.003a1.5 1.5 0 00-.806-2.89l-.01.004a1.5 1.5 0 00.806 2.89zm6.992-2.702a.847.847 0 10-.614-1.578l-.006.002a.847.847 0 00.614 1.579l.006-.003zM5.678 30.097l.01-.002a1.5 1.5 0 10-.354-2.979c-.006 0-.006 0-.011.002a1.5 1.5 0 10.355 2.979zm7.67-.97l.012-.001a1.5 1.5 0 10-.398-2.974l-.01.002a1.5 1.5 0 10.397 2.973zm7.829-.501l.014-.003a1.993 1.993 0 10-.588-3.94l-.014.001a1.993 1.993 0 10.588 3.942zm7.66-1.208a1.992 1.992 0 10-.66-3.93l-.014.002a1.992 1.992 0 00.66 3.93l.014-.002zm7.636-1.357a1.998 1.998 0 001.581-2.339 1.993 1.993 0 00-2.332-1.586l-.014.003a1.998 1.998 0 00-1.582 2.339 1.993 1.993 0 002.332 1.586l.015-.003zm7.598-1.591l.014-.004a1.992 1.992 0 10-.876-3.887l-.014.003a1.992 1.992 0 10.876 3.888zm7.357-2.462l.01-.003a1.5 1.5 0 00-.806-2.89l-.01.004a1.5 1.5 0 00.806 2.89zm7.472-2.432l.01-.004a1.5 1.5 0 00-1.087-2.797l-.01.004a1.5 1.5 0 001.087 2.797zM5.453 36.698a.846.846 0 10-.2-1.682h-.006a.847.847 0 00.2 1.683l.006-.001zm7.896-.57l.01-.002a1.5 1.5 0 10-.397-2.974l-.01.002a1.5 1.5 0 10.397 2.973zm7.658-1.082l.01-.001a1.5 1.5 0 10-.442-2.968l-.011.002a1.5 1.5 0 00.443 2.967zm7.816-.626l.014-.002a1.992 1.992 0 10-.66-3.93l-.014.002a1.992 1.992 0 00.66 3.93zm7.65-1.37a1.992 1.992 0 10-.751-3.914l-.014.003a1.992 1.992 0 00.75 3.913l.015-.002zm7.4-2.155l.01-.003a1.5 1.5 0 00-.66-2.926l-.01.002a1.5 1.5 0 00.66 2.927zm7.555-1.887l.01-.003a1.5 1.5 0 00-.806-2.89l-.01.004a1.5 1.5 0 10.806 2.89zm6.986-3.3l.006-.002a.847.847 0 10-.614-1.578l-.006.002a.847.847 0 00.614 1.579z" fill="#B6B6B6"/></g></svg>