<svg xmlns="http://www.w3.org/2000/svg" viewBox="0 0 150 150" width="150" height="150"><g fill="#ca445e"><path d="M87.097 43.548C87.097 19.536 67.56 0 43.548 0S0 19.536 0 43.548c0 18.917 12.145 35.01 29.032 41.008v7.38h-4.838v4.838h4.838v38.71c0 8.006 6.51 14.516 14.516 14.516s14.517-6.51 14.517-14.516v-38.71h4.838v-4.839h-4.838v-7.379c16.887-5.997 29.032-22.09 29.032-41.008zm-82.258 0c0-21.343 17.366-38.71 38.71-38.71 21.343 0 38.71 17.367 38.71 38.71 0 21.344-17.367 38.71-38.71 38.71-21.344 0-38.71-17.366-38.71-38.71zm48.387 91.936c0 5.337-4.34 9.677-9.678 9.677-5.337 0-9.677-4.34-9.677-9.677v-38.71h19.355zm0-43.549H33.87v-5.96c3.119.71 6.348 1.122 9.677 1.122 3.33 0 6.56-.412 9.678-1.123z"/><path d="M72.58 43.548c0-16.008-13.023-29.032-29.032-29.032-16.008 0-29.032 13.024-29.032 29.032 0 16.01 13.024 29.033 29.032 29.033 16.01 0 29.033-13.024 29.033-29.033zm-53.225 0c0-13.34 10.853-24.193 24.193-24.193 13.34 0 24.194 10.853 24.194 24.193 0 13.34-10.853 24.194-24.194 24.194-13.34 0-24.193-10.853-24.193-24.194zm125.806 87.097h-1.381c-1.362-1.826-5.596-9.467-5.862-33.873a4.843 4.843 0 004.824-4.837v-9.677a4.844 4.844 0 00-4.839-4.839H94.355a4.844 4.844 0 00-4.839 4.84v9.676a4.843 4.843 0 004.824 4.837c-.266 24.406-4.502 32.047-5.862 33.873h-1.381a4.844 4.844 0 00-4.839 4.839v9.677A4.844 4.844 0 0087.097 150h58.064a4.844 4.844 0 004.839-4.839v-9.677a4.844 4.844 0 00-4.839-4.839zM94.355 82.258h43.548l.003 9.677H94.355zm50.806 62.903H87.097v-9.677h41.129v-4.839H94.089c2.284-4.81 4.887-14.528 5.088-33.87h33.902c.2 19.342 2.804 29.06 5.088 33.87h-5.102v4.839h12.096z"/><path d="M24.902 38.001l3.421-3.421 24.193 24.193-3.421 3.421zm31.451 12.097l3.422-3.421 2.419 2.419-3.422 3.421zM34.579 28.323L38 24.902l18.827 18.826-3.422 3.422z"/></g></svg>