<svg xmlns="http://www.w3.org/2000/svg" viewBox="0 0 150 151.805" width="150" height="151.805"><path d="M85.537 27.324v14.884a5.28 5.28 0 002.667 4.618c1.645.947 3.7.94 5.332-.009a5.807 5.807 0 018.711 5.027c0 3.2-2.604 5.804-5.804 5.804a5.777 5.777 0 01-2.905-.779 5.348 5.348 0 00-5.336-.005 5.273 5.273 0 00-2.665 4.615v25.587H69.285c-.148 0-.216-.038-.292-.166-.078-.127-.08-.205-.012-.341a12.228 12.228 0 001.36-5.598c0-6.719-5.466-12.186-12.184-12.186-4.078 0-7.684 2.02-9.897 5.105.167-.412.285-.847.347-1.303a5.296 5.296 0 00-1.936-4.85 7.095 7.095 0 01-2.066-2.707 7.155 7.155 0 01-.114-5.509 7.155 7.155 0 013.813-3.978 7.148 7.148 0 012.887-.608 7.208 7.208 0 017.192 7.66c-.12 1.898.703 3.613 2.261 4.708a5.31 5.31 0 005.2.513l19.444-8.537-12.29-27.99c-.062-.138-.052-.223.034-.343.098-.131.172-.136.318-.14a10.747 10.747 0 005.532-.844c5.447-2.392 7.933-8.77 5.54-14.217A10.794 10.794 0 0074.54 9.28c-1.496 0-2.955.307-4.336.912a10.817 10.817 0 00-4.363 3.501c-.099.131-.185.14-.313.138-.151-.016-.218-.065-.28-.204L59.266 0 0 26.026l26.02 59.267 19.445-8.537c.764-.334 1.399-.85 1.914-1.46a12.106 12.106 0 00-1.408 5.668c0 1.944.47 3.882 1.363 5.602.067.133.065.21-.012.337-.078.126-.146.166-.295.166H25.795v64.726H85.27v.01H150V27.324zM43.462 72.192l-14.879 6.532L6.57 28.587 56.706 6.574l3.98 9.063a5.277 5.277 0 004.3 3.155c1.943.218 3.75-.603 4.881-2.152a5.826 5.826 0 014.676-2.372 5.807 5.807 0 11-.636 11.577c-1.948-.215-3.746.591-4.883 2.137a5.268 5.268 0 00-.588 5.3L78.72 56.707l-15.034 6.577c-.02 0-.08 0-.176-.07-.124-.088-.16-.16-.15-.305a12.194 12.194 0 00-12.167-12.966c-1.69 0-3.335.345-4.89 1.03a12.1 12.1 0 00-6.454 6.73 12.095 12.095 0 00.194 9.32c.78 1.78 1.99 3.365 3.498 4.585.115.094.147.168.127.312-.022.15-.067.213-.205.273zm47.06-10.71c0-.15.042-.223.173-.298.131-.074.213-.076.342-.001a10.773 10.773 0 005.407 1.452c5.95 0 10.79-4.84 10.79-10.79 0-5.948-4.84-10.789-10.79-10.789-1.899 0-3.768.502-5.41 1.452-.123.072-.21.072-.337 0-.132-.076-.173-.15-.173-.3v-9.9h54.492V87.07h-17.241a.288.288 0 01-.251-.153c-.079-.13-.082-.204-.02-.327a5.58 5.58 0 01.387-.653 11.97 11.97 0 002.085-6.767c0-6.627-5.389-12.016-12.014-12.016-6.625 0-12.016 5.39-12.016 12.016 0 2.425.721 4.764 2.087 6.767.152.22.28.432.383.646.064.133.061.208-.017.33-.068.11-.138.147-.251.157H90.522zM30.78 146.81V92.054h16.25a5.291 5.291 0 004.555-2.564 5.289 5.289 0 00.176-5.22 7.095 7.095 0 01-.803-3.306c0-3.97 3.229-7.2 7.199-7.2 3.97 0 7.198 3.228 7.198 7.2a7.146 7.146 0 01-.799 3.307 5.291 5.291 0 00.176 5.223 5.288 5.288 0 004.552 2.56h15.985v20.36a.35.35 0 01-.342.344h-.198c-.98 0-1.778-.246-2.589-.801-2-1.363-4.34-2.084-6.766-2.084-6.625 0-12.014 5.387-12.014 12.014 0 6.624 5.389 12.014 12.014 12.014 2.426 0 4.766-.72 6.766-2.087.81-.552 1.609-.797 2.59-.797h.197a.35.35 0 01.342.343v15.45zm114.235.01H90.256v-15.46a5.335 5.335 0 00-5.327-5.329h-.198c-1.99 0-3.757.546-5.399 1.669a6.996 6.996 0 01-3.956 1.216 7.037 7.037 0 01-7.03-7.029 7.035 7.035 0 0110.986-5.813c1.642 1.124 3.41 1.669 5.399 1.669h.198a5.334 5.334 0 005.327-5.33V92.062h17.85c1.883 0 3.533-.92 4.529-2.52.993-1.6 1.081-3.486.249-5.166-.196-.402-.44-.817-.735-1.25a7.002 7.002 0 01-1.218-3.956 7.039 7.039 0 017.031-7.03 7.036 7.036 0 015.813 10.987c-.294.429-.532.837-.735 1.243-.834 1.688-.744 3.572.248 5.173.995 1.6 2.645 2.519 4.528 2.519h17.2v54.758z" fill="#ca445e"/></svg>