<svg xmlns="http://www.w3.org/2000/svg" viewBox="0 0 97.492 150" width="97.492" height="150"><path d="M28.523 87.457v-3.343c0-3.382-2.345-6.205-5.487-6.988V27.07l4.512-3.921a2.504 2.504 0 00.763-2.575l-5.37-18.763A2.503 2.503 0 0020.536 0h-7.754a2.498 2.498 0 00-2.404 1.812L5.007 20.573a2.504 2.504 0 00.763 2.575l4.512 3.922v50.056c-3.142.783-5.485 3.606-5.485 6.988v3.343C1.96 88.944 0 91.884 0 95.301v45.807c0 4.902 3.988 8.889 8.888 8.889H24.43c4.9 0 8.888-3.989 8.888-8.889V95.301c0-3.417-1.96-6.357-4.795-7.844zM10.252 20.42L14.667 5h3.986l4.413 15.42-4.17 3.623c-.023.02-.038.045-.061.065a2.55 2.55 0 00-.174.185c-.053.062-.106.122-.153.187a1.702 1.702 0 00-.123.2c-.042.071-.085.143-.119.218-.031.07-.055.143-.081.218-.029.08-.055.159-.075.242a2.458 2.458 0 00-.037.222c-.013.09-.025.178-.027.27 0 .028-.008.053-.008.081v50.961h-2.755v-50.96c0-.029-.007-.056-.008-.082a3.062 3.062 0 00-.027-.269c-.01-.075-.02-.15-.037-.223a2.495 2.495 0 00-.075-.24c-.025-.073-.05-.148-.081-.218-.035-.075-.077-.147-.118-.219-.04-.068-.079-.136-.125-.201a2.314 2.314 0 00-.154-.185c-.056-.064-.111-.127-.173-.185-.022-.02-.038-.045-.06-.065zm-.455 63.694c0-1.225.996-2.222 2.221-2.222h.724c.013 0 .026.004.04.004h7.754c.014 0 .027-.004.04-.004h.724c1.225 0 2.223.997 2.223 2.222v2.298H9.797zm9.33 60.884h-4.934v-41.44a2.47 2.47 0 012.467-2.466 2.47 2.47 0 012.465 2.467v41.44zm9.191-3.888a3.893 3.893 0 01-3.888 3.888h-.305v-41.44c0-.172-.017-.34-.052-.504-.265-3.878-3.472-6.963-7.415-6.963-3.945 0-7.151 3.083-7.416 6.963a2.52 2.52 0 00-.052.505v41.44h-.305a3.894 3.894 0 01-3.888-3.889V95.3a3.893 3.893 0 013.888-3.888h15.541a3.894 3.894 0 013.889 3.889v45.81zm55.568-35.563V44.451A24.711 24.711 0 0097.489 22.35c0-9.385-5.195-17.845-13.56-22.08-.025-.013-.052-.018-.077-.03a2.597 2.597 0 00-.246-.095 2.22 2.22 0 00-.227-.07c-.075-.018-.153-.028-.23-.038a2.09 2.09 0 00-.268-.027C82.854.007 82.827 0 82.8 0c-.05 0-.097.012-.145.015a2.281 2.281 0 00-.724.15 2.818 2.818 0 00-.435.212 2.816 2.816 0 00-.386.29c-.06.055-.115.113-.17.175-.052.058-.104.116-.15.181a2.572 2.572 0 00-.149.23c-.023.04-.053.075-.075.117-.011.023-.016.048-.028.072-.038.083-.07.17-.1.258-.025.073-.05.147-.068.22a2.069 2.069 0 00-.039.23 2.546 2.546 0 00-.028.272c0 .026-.008.051-.008.078v13.328c0 2.335-1.897 4.237-4.225 4.237h-6.683a4.236 4.236 0 01-4.225-4.237V2.5c0-.027-.007-.05-.009-.077a2.718 2.718 0 00-.028-.283c-.01-.073-.02-.147-.037-.217-.018-.08-.046-.158-.073-.238a2.712 2.712 0 00-.092-.238c-.011-.027-.018-.055-.031-.08-.024-.045-.055-.084-.082-.127a2.623 2.623 0 00-.138-.215 2.43 2.43 0 00-.157-.19 2.647 2.647 0 00-.165-.17 2.384 2.384 0 00-.188-.155 2.396 2.396 0 00-.854-.417 2.507 2.507 0 00-.246-.055 2.556 2.556 0 00-.254-.025c-.042-.001-.09-.013-.14-.013-.029 0-.055.008-.085.008a2.29 2.29 0 00-.26.027c-.08.012-.16.022-.239.04-.073.018-.145.043-.218.068a2.3 2.3 0 00-.258.1c-.024.012-.049.017-.074.029-8.363 4.245-13.558 12.705-13.558 22.078A24.721 24.721 0 0061.59 44.46v61.078a24.718 24.718 0 00-13.613 22.111c0 9.373 5.195 17.833 13.558 22.078.022.01.044.014.065.024.124.058.252.103.384.141.046.014.093.034.141.044.155.035.315.051.48.056.02 0 .04.007.06.007l.019-.002c.203-.001.398-.033.588-.08.055-.013.105-.031.16-.05.15-.048.293-.11.43-.185.045-.025.092-.046.137-.073a2.5 2.5 0 00.463-.373c.03-.032.055-.069.083-.102.114-.13.212-.272.297-.423.017-.029.04-.05.055-.08.013-.027.018-.054.032-.08.035-.077.063-.157.091-.239.027-.078.055-.156.074-.238a2.35 2.35 0 00.036-.217c.014-.095.025-.188.029-.283 0-.027.008-.05.008-.077V134.17a4.237 4.237 0 014.225-4.236h6.683c2.328 0 4.225 1.9 4.225 4.236v13.328c0 .027.007.052.008.079.004.091.015.181.029.271.011.079.021.155.038.23.018.075.043.147.068.22.03.089.06.175.1.259.012.023.017.048.029.071.013.027.036.047.05.072.086.157.188.302.305.435.026.032.05.067.078.095.138.143.295.268.465.377.043.026.088.048.133.071.139.077.282.139.435.187.054.017.104.035.159.048.19.047.385.08.588.08l.018.002c.02 0 .042-.007.064-.007a2.58 2.58 0 00.475-.055c.05-.011.1-.031.15-.046.128-.037.253-.08.373-.137.022-.01.047-.013.068-.025 8.365-4.235 13.56-12.695 13.56-22.08a24.72 24.72 0 00-13.606-22.098zm1.415 37.35v-8.727c0-5.093-4.139-9.236-9.225-9.236h-6.683c-5.087 0-9.225 4.143-9.225 9.236v8.722c-4.512-3.704-7.189-9.237-7.189-15.245a19.738 19.738 0 0112.024-18.188c.278.106.578.171.895.171h.006l3.334-.01a2.5 2.5 0 00-.007-5h-.007l-2.631.009V42.876c0-.168-.017-.335-.05-.496-.015-.077-.044-.147-.065-.22-.025-.082-.044-.165-.075-.244-.032-.076-.075-.145-.114-.216-.038-.07-.07-.144-.115-.212-.04-.06-.09-.112-.135-.168-.056-.07-.108-.144-.171-.209-.052-.053-.114-.095-.17-.143-.067-.057-.129-.117-.202-.167a2.541 2.541 0 00-.433-.236 19.741 19.741 0 01-12.084-18.217 19.654 19.654 0 017.189-15.245v8.722c0 5.093 4.138 9.236 9.225 9.236h6.683c5.086 0 9.225-4.143 9.225-9.236V7.102c4.51 3.698 7.188 9.233 7.188 15.248 0 7.85-4.612 14.898-11.772 18.065a2.5 2.5 0 00-.515-.055h-.006l-3.334.01a2.5 2.5 0 00.007 5h.007l2.01-.007v61.77c0 .167.016.334.05.497.015.075.043.144.063.215.025.084.043.169.077.247.031.075.073.143.111.215.039.072.072.147.117.213.038.059.088.11.132.165.056.072.108.145.173.21.052.052.112.094.168.142.067.057.13.118.204.168.136.092.28.172.433.237A19.727 19.727 0 0192.49 127.65c0 6.016-2.678 11.551-7.188 15.248z" fill="#ca445e"/></svg>